<svg width="1025" height="235" viewBox="0 0 1025 235" fill="none" xmlns="http://www.w3.org/2000/svg">
<path d="M824 81C845.983 81 858.722 95.735 859.5 97.2891H860V84H886V191H860V178H859.5C851.237 187.481 835.926 194 822.5 194C794.681 194 770 172.854 770 136.917C770 103.893 794.041 81 824 81ZM999 89.9355H1024.53V114.419H998.702V145.032C998.702 153.045 1000.87 159.129 1005.21 163.284C1009.71 167.439 1016.14 169.517 1024.53 169.517V194C1016.89 194 1009.93 192.813 1003.64 190.438C997.505 188.064 992.189 184.8 987.698 180.646C983.357 176.342 979.988 171.148 977.593 165.064C975.198 158.981 974 152.303 974 145.032V56H999V89.9355ZM356.528 44C363.732 44 370.202 44.951 375.936 46.8525C381.816 48.754 386.815 51.4594 390.932 54.9697C395.048 58.4801 398.209 62.7223 400.414 67.6953C402.619 72.5221 403.723 78.0072 403.723 84.1504C403.723 90.1474 402.693 95.5599 400.635 100.387C398.576 105.213 395.636 109.456 391.813 113.112C397.841 116.769 402.546 121.596 405.928 127.593C409.309 133.59 411 140.391 411 147.997C411 154.287 409.75 160.064 407.251 165.33C404.899 170.596 401.517 175.13 397.106 178.933C392.843 182.736 387.697 185.735 381.669 187.929C375.788 189.976 369.246 191 362.042 191H295V44H356.528ZM452 191H426V84H452V191ZM553.886 104.062L502.423 166.479H555V191H467V170.938L518.463 108.521H470.342V84H553.886V104.062ZM625.382 44C636.83 44 647.252 45.7552 656.646 49.2656C666.039 52.7761 674.112 57.8222 680.864 64.4043C687.616 70.8401 692.827 78.5925 696.496 87.6611C700.166 96.5835 702 106.53 702 117.5C702 128.47 700.092 138.49 696.275 147.559C692.606 156.481 687.395 164.232 680.644 170.814C674.039 177.25 666.039 182.224 656.646 185.734C647.252 189.245 636.83 191 625.382 191H571V44H625.382ZM764 107C756.148 107 749.926 107.864 745.333 112.204C740.741 116.544 740 122.456 740 129.938V191H714V130.837C714 123.204 715.185 116.32 717.556 110.184C719.926 104.048 723.259 98.8098 727.556 94.4697C732 90.1297 737.259 86.8367 743.333 84.5918C749.555 82.1972 756.444 81 764 81V107ZM958 68C950.14 68 944.105 69.0605 939.895 72.9805C935.825 76.9004 935 82.4402 935 90H958V114H935V191H910V114H898V90H911C911 83 911.754 76.8998 914 71.2998C916.246 65.5599 919.404 60.7295 923.474 56.8096C927.684 52.7497 932.667 49.6003 938.421 47.3604C944.316 45.1203 950.842 44 958 44V68ZM826 103.5C804.795 103.5 792 121.377 792 137.5C792 155.76 807.519 171.5 826 171.5C843.898 171.5 860 157.508 860 137.5C860 115.16 841.369 103.5 826 103.5ZM321.464 166.865H362.042C368.805 166.865 374.245 165.038 378.361 161.381C382.478 157.724 384.536 153.117 384.536 147.559C384.536 142 382.478 137.466 378.361 133.955C374.245 130.298 368.805 128.47 362.042 128.47H321.464V166.865ZM597.42 166.865H625.161C632.794 166.865 639.693 165.696 645.857 163.355C652.022 161.015 657.306 157.724 661.709 153.482C666.112 149.094 669.488 143.901 671.837 137.904C674.332 131.761 675.58 124.96 675.58 117.5C675.58 110.04 674.332 103.311 671.837 97.3145C669.488 91.1714 666.112 85.979 661.709 81.7373C657.306 77.3493 652.022 73.9848 645.857 71.6445C639.693 69.3042 632.794 68.1348 625.161 68.1348H597.42V166.865ZM321.464 104.336H356.308C362.777 104.336 367.996 102.653 371.966 99.2891C375.935 95.9249 377.92 91.5368 377.92 86.125C377.92 80.8595 375.935 76.5448 371.966 73.1807C367.996 69.8165 362.777 68.1348 356.308 68.1348H321.464V104.336ZM439 44C443.571 44 447.381 45.5237 450.429 48.5713C453.476 51.6189 455 55.4286 455 60C455 64.5714 453.476 68.3811 450.429 71.4287C447.381 74.4763 443.571 76 439 76C434.429 76 430.619 74.4763 427.571 71.4287C424.524 68.3811 423 64.5714 423 60C423 55.4286 424.524 51.6189 427.571 48.5713C430.619 45.5237 434.429 44 439 44Z" fill="black"/>
<g filter="url(#filter0_ii_75_179)">
<rect width="235" height="235" rx="60" fill="#FFB000"/>
<rect x="1" y="1" width="233" height="233" rx="59" stroke="white" stroke-opacity="0.25" stroke-width="2"/>
<g filter="url(#filter1_ii_75_179)">
<path d="M182 74.6247C182 74.6247 182 144.464 182 191H59V184.184C65.7419 177.316 72.8408 170.736 80.1586 164.976C94.8513 153.412 111.46 148.11 130.036 148.208C137.319 148.317 144.523 149.877 151.533 151.697C142.614 129.455 144.704 105.704 151.61 83.4076L151.301 83.5484C148.932 84.6035 144.035 85.9786 141.544 86.625C122.329 91.5872 102.052 90.4641 83.5003 83.4102C85.5459 89.8192 87.0238 99.757 87.0886 106.374C87.1811 124.665 80.8467 142.408 69.1947 156.491C65.9836 160.386 62.5497 164.128 59 167.784V44H151.25L182 74.6247Z" fill="#241E14"/>
</g>
</g>
<defs>
<filter id="filter0_ii_75_179" x="0" y="0" width="235" height="257" filterUnits="userSpaceOnUse" color-interpolation-filters="sRGB">
<feFlood flood-opacity="0" result="BackgroundImageFix"/>
<feBlend mode="normal" in="SourceGraphic" in2="BackgroundImageFix" result="shape"/>
<feColorMatrix in="SourceAlpha" type="matrix" values="0 0 0 0 0 0 0 0 0 0 0 0 0 0 0 0 0 0 127 0" result="hardAlpha"/>
<feMorphology radius="5" operator="erode" in="SourceAlpha" result="effect1_innerShadow_75_179"/>
<feOffset dy="22"/>
<feGaussianBlur stdDeviation="11"/>
<feComposite in2="hardAlpha" operator="arithmetic" k2="-1" k3="1"/>
<feColorMatrix type="matrix" values="0 0 0 0 0.7375 0 0 0 0 0.493019 0 0 0 0 0.267344 0 0 0 0.1 0"/>
<feBlend mode="multiply" in2="shape" result="effect1_innerShadow_75_179"/>
<feColorMatrix in="SourceAlpha" type="matrix" values="0 0 0 0 0 0 0 0 0 0 0 0 0 0 0 0 0 0 127 0" result="hardAlpha"/>
<feMorphology radius="2" operator="erode" in="SourceAlpha" result="effect2_innerShadow_75_179"/>
<feOffset dy="22"/>
<feGaussianBlur stdDeviation="11"/>
<feComposite in2="hardAlpha" operator="arithmetic" k2="-1" k3="1"/>
<feColorMatrix type="matrix" values="0 0 0 0 1 0 0 0 0 1 0 0 0 0 1 0 0 0 0.6 0"/>
<feBlend mode="normal" in2="effect1_innerShadow_75_179" result="effect2_innerShadow_75_179"/>
</filter>
<filter id="filter1_ii_75_179" x="59" y="42" width="123" height="149" filterUnits="userSpaceOnUse" color-interpolation-filters="sRGB">
<feFlood flood-opacity="0" result="BackgroundImageFix"/>
<feBlend mode="normal" in="SourceGraphic" in2="BackgroundImageFix" result="shape"/>
<feColorMatrix in="SourceAlpha" type="matrix" values="0 0 0 0 0 0 0 0 0 0 0 0 0 0 0 0 0 0 127 0" result="hardAlpha"/>
<feOffset dy="-2"/>
<feGaussianBlur stdDeviation="2.5"/>
<feComposite in2="hardAlpha" operator="arithmetic" k2="-1" k3="1"/>
<feColorMatrix type="matrix" values="0 0 0 0 1 0 0 0 0 1 0 0 0 0 1 0 0 0 0.25 0"/>
<feBlend mode="normal" in2="shape" result="effect1_innerShadow_75_179"/>
<feColorMatrix in="SourceAlpha" type="matrix" values="0 0 0 0 0 0 0 0 0 0 0 0 0 0 0 0 0 0 127 0" result="hardAlpha"/>
<feOffset dy="-2"/>
<feGaussianBlur stdDeviation="2.5"/>
<feComposite in2="hardAlpha" operator="arithmetic" k2="-1" k3="1"/>
<feColorMatrix type="matrix" values="0 0 0 0 0 0 0 0 0 0 0 0 0 0 0 0 0 0 0.12 0"/>
<feBlend mode="normal" in2="effect1_innerShadow_75_179" result="effect2_innerShadow_75_179"/>
</filter>
</defs>
</svg>
