<svg width="92" height="32" viewBox="0 0 92 32" fill="none" xmlns="http://www.w3.org/2000/svg">
<g clip-path="url(#clip0_387_3225)">
<path d="M24.0636 25.3824C22.6947 25.3824 21.4903 25.098 20.4505 24.5293C19.4108 23.9605 18.6011 23.1593 18.0215 22.1255C17.4418 21.0917 17.152 19.8784 17.152 18.4854C17.152 17.0904 17.4418 15.8766 18.0215 14.844C18.6011 13.8114 19.4108 13.0087 20.4505 12.4358C21.4903 11.8629 22.6947 11.5764 24.0636 11.5764C25.4409 11.5764 26.6474 11.8629 27.683 12.4358C28.7186 13.0087 29.5262 13.8114 30.1059 14.844C30.6856 15.8766 30.9754 17.0904 30.9754 18.4854C30.9754 19.8784 30.6856 21.0917 30.1059 22.1255C29.5262 23.1593 28.7186 23.9605 27.683 24.5293C26.6474 25.098 25.4409 25.3824 24.0636 25.3824ZM24.0636 21.9549C24.5655 21.9549 25.01 21.8203 25.3973 21.5512C25.7846 21.2821 26.0886 20.8885 26.3093 20.3704C26.53 19.8524 26.6404 19.224 26.6404 18.4854C26.6404 17.7364 26.53 17.1045 26.3093 16.5896C26.0886 16.0747 25.7846 15.6817 25.3973 15.4106C25.01 15.1394 24.5655 15.0039 24.0636 15.0039C23.5702 15.0039 23.1278 15.1389 22.7364 15.409C22.3449 15.6791 22.0388 16.0721 21.8181 16.588C21.5974 17.104 21.4871 17.7364 21.4871 18.4854C21.4871 19.226 21.5974 19.8548 21.8181 20.3719C22.0388 20.889 22.3444 21.2821 22.7348 21.5512C23.1252 21.8203 23.5682 21.9549 24.0636 21.9549Z" fill="black"/>
<path d="M38.5277 25.3824C37.1713 25.3824 35.9827 25.0932 34.9619 24.515C33.941 23.9368 33.1471 23.1291 32.58 22.0922C32.013 21.0552 31.7295 19.853 31.7295 18.4854C31.7295 17.1158 32.013 15.9116 32.58 14.8726C33.1471 13.8336 33.941 13.0245 34.9619 12.4452C35.9827 11.866 37.1713 11.5764 38.5277 11.5764C39.4383 11.5764 40.2772 11.7101 41.0443 11.9774C41.8114 12.2447 42.4787 12.6227 43.046 13.1114C43.6134 13.6 44.0632 14.1791 44.3954 14.8485C44.7276 15.518 44.9173 16.259 44.9644 17.0718H40.8375C40.8007 16.756 40.7241 16.4704 40.6077 16.2149C40.4914 15.9595 40.3374 15.7399 40.1458 15.5562C39.9542 15.3724 39.729 15.2313 39.4704 15.1327C39.2117 15.0342 38.9227 14.9849 38.6034 14.9849C38.072 14.9849 37.6169 15.1263 37.2381 15.4091C36.8593 15.6919 36.569 16.0944 36.3672 16.6167C36.1654 17.1389 36.0645 17.7618 36.0645 18.4854C36.0645 19.2007 36.1654 19.8201 36.3672 20.3435C36.569 20.8669 36.8604 21.2695 37.2414 21.5512C37.6224 21.833 38.0764 21.9739 38.6034 21.9739C38.9227 21.9739 39.2107 21.924 39.4673 21.8243C39.724 21.7246 39.9462 21.5828 40.1338 21.3991C40.3215 21.2154 40.4735 20.9921 40.5898 20.7294C40.7062 20.4666 40.7858 20.1732 40.8285 19.8489H44.9644C44.9425 20.6576 44.7702 21.3983 44.4474 22.0709C44.1246 22.7435 43.6775 23.3278 43.106 23.8239C42.5346 24.3199 41.8606 24.7037 41.084 24.9752C40.3074 25.2466 39.4553 25.3824 38.5277 25.3824Z" fill="black"/>
<path d="M46.2245 25.0822V6.44922H50.6971V13.6848H57.7599V6.44922H62.2323V25.0822H57.7599V17.5104H50.6971V25.0822H46.2245Z" fill="black"/>
<path d="M68.3072 25.3706C67.3584 25.3706 66.5452 25.1641 65.8676 24.751C65.1901 24.3379 64.6729 23.7432 64.3161 22.9669C63.9594 22.1906 63.781 21.26 63.781 20.1752V11.8767H68.0723V19.2838C68.0723 20.0585 68.2593 20.6532 68.6335 21.0679C69.0076 21.4826 69.5329 21.6899 70.2094 21.6899C70.6591 21.6899 71.0507 21.5955 71.3842 21.4068C71.7177 21.218 71.9754 20.9283 72.1572 20.5377C72.3391 20.147 72.4301 19.6524 72.4301 19.0538V11.8767H76.7212V25.0824H72.4892V21.5485H73.1245C72.712 22.7069 72.122 23.6335 71.3545 24.3284C70.5871 25.0232 69.5713 25.3706 68.3072 25.3706Z" fill="black"/>
<path d="M86.3056 25.3705C85.7288 25.3705 85.1959 25.2844 84.7067 25.1123C84.2175 24.9403 83.7871 24.6811 83.4156 24.335C83.044 23.9888 82.7448 23.5582 82.5178 23.0433H82.5024V25.0822H78.2609V6.44922H82.5522V13.6562H82.5675C82.8496 13.1834 83.1739 12.7955 83.5403 12.4925C83.9067 12.1896 84.3245 11.9632 84.7936 11.8132C85.2627 11.6633 85.7793 11.5883 86.3435 11.5883C87.4568 11.5883 88.4361 11.8792 89.2813 12.4608C90.1265 13.0424 90.7886 13.8496 91.2679 14.8823C91.7471 15.9151 91.9867 17.1078 91.9867 18.4604C91.9867 19.8491 91.7518 21.0613 91.2819 22.0973C90.8121 23.1332 90.1531 23.9377 89.3049 24.5108C88.4567 25.0839 87.4569 25.3705 86.3056 25.3705ZM85.1025 21.9268C85.6324 21.9268 86.0869 21.7883 86.4659 21.5114C86.8449 21.2344 87.1373 20.8369 87.343 20.3187C87.5488 19.8005 87.6516 19.1811 87.6516 18.4604C87.6516 17.7377 87.5488 17.1205 87.343 16.6086C87.1373 16.0967 86.8449 15.7023 86.4659 15.4254C86.0869 15.1484 85.6324 15.0099 85.1025 15.0099C84.5668 15.0099 84.0933 15.1524 83.682 15.4374C83.2706 15.7223 82.9505 16.1217 82.7215 16.6356C82.4925 17.1495 82.3779 17.7578 82.3779 18.4604C82.3779 19.161 82.4925 19.7714 82.7215 20.2916C82.9505 20.8118 83.2706 21.2144 83.682 21.4994C84.0933 21.7843 84.5668 21.9268 85.1025 21.9268Z" fill="black"/>
<path d="M6.89776 6.22217C7.25405 6.22217 7.60109 6.23538 7.93888 6.2618L7.93886 10.1452C7.53905 10.0783 7.1081 10.0448 6.64602 10.0448H4.44327V21.2597H6.70895C8.32011 21.2597 9.55155 20.8356 10.4033 19.9876C11.255 19.1395 11.6809 17.6944 11.6809 15.6523C11.6809 15.18 11.658 14.7397 11.6122 14.3313L16.0636 14.3313C16.104 14.7568 16.1241 15.1971 16.1241 15.6523C16.1241 17.6184 15.7507 19.304 15.0039 20.7091C14.2571 22.1141 13.1955 23.1942 11.8193 23.9495C10.4431 24.7047 8.80262 25.0824 6.89776 25.0824H0V6.22217H6.89776Z" fill="black"/>
<path fill-rule="evenodd" clip-rule="evenodd" d="M9.40578 6.47534L15.7463 12.8465H9.40578V6.47534Z" fill="#00A5FF"/>
</g>
<defs>
<clipPath id="clip0_387_3225">
<rect width="92" height="19.1977" fill="white" transform="translate(0 6.22217)"/>
</clipPath>
</defs>
</svg>
