<svg width="112" height="32" viewBox="0 0 112 32" fill="none" xmlns="http://www.w3.org/2000/svg">
<path fill-rule="evenodd" clip-rule="evenodd" d="M10.7118 10.1678C15.3063 10.1678 17.4152 12.9313 17.4152 18.1316C17.4152 22.8546 15.2309 25.9949 10.7118 25.9949C9.10324 25.9949 7.68949 25.5184 6.59117 24.7262L6.34336 24.5378L6.29315 24.5881L6.3382 29.0733C6.34085 29.3379 6.18618 29.5746 5.95173 29.6815L5.84659 29.719L2.82974 30.518C2.77457 30.5326 2.71775 30.54 2.66069 30.54C2.33634 30.54 2.06659 30.3062 2.01064 29.9978L2 29.8789V11.1159C2 10.7913 2.23372 10.5214 2.54193 10.4654L2.66069 10.4548H4.90117C5.15504 10.4548 5.38291 10.5998 5.49301 10.822L5.53271 10.9217L5.84124 11.9264C7.02123 10.821 8.52759 10.1678 10.7118 10.1678ZM33.2188 5.65845C33.5432 5.65845 33.8129 5.89232 33.8689 6.20073L33.8795 6.31957V25.0826C33.8795 25.4072 33.6458 25.6771 33.3376 25.7331L33.2188 25.7437H30.9783C30.7245 25.7437 30.4966 25.5987 30.3865 25.3765L30.3468 25.2768L30.0383 24.2721C28.8583 25.3775 27.3519 26.0306 25.1677 26.0306C20.5733 26.0306 18.4643 23.2672 18.4643 18.0669C18.4643 13.3438 20.6486 10.2035 25.1677 10.2035C26.7763 10.2035 28.19 10.6801 29.2883 11.4723L29.5361 11.6606L29.5864 11.6104L29.5413 7.12523C29.5387 6.8606 29.6933 6.62392 29.9278 6.51704L30.0329 6.47948L33.0498 5.68046C33.1049 5.66585 33.1618 5.65845 33.2188 5.65845ZM90.3987 10.3662C94.7184 10.3662 97.4988 12.8266 97.4988 17.4492L97.4914 17.7672C97.4815 18.005 97.4618 18.2942 97.4321 18.6349C97.4024 18.9764 97.1166 19.2386 96.7739 19.2386H87.2211C87.4445 21.4505 88.934 22.4197 91.8386 22.4197L92.3953 22.417C93.2075 22.4057 93.5274 22.3494 94.6447 22.0815C94.762 22.0534 94.9043 22.0044 95.0717 21.9347C95.3711 21.8099 95.71 21.9219 95.8801 22.1851L95.9379 22.2962L96.7257 24.2371C96.863 24.5754 96.7002 24.961 96.3621 25.0984L96.3023 25.1195C94.2375 25.7354 92.5758 26.0284 91.3173 25.9985C85.4351 25.859 82.8021 23.041 82.8021 18.0208C82.8021 13.4728 85.2598 10.3662 90.3987 10.3662ZM108.353 10.4435C108.644 10.4435 108.919 10.4624 109.174 10.4944L109.464 10.5414C109.822 10.6105 110.057 10.9571 109.988 11.3156L109.967 11.3972L109.074 14.1127C108.966 14.4417 108.622 14.6314 108.286 14.5474L108.079 14.5005C108.047 14.4944 108.018 14.4891 107.99 14.4846C107.722 14.4415 107.436 14.42 107.112 14.42C104.779 14.42 103.959 15.9857 103.959 18.5704V25.0917C103.959 25.4568 103.663 25.7528 103.299 25.7528H100.35C99.9851 25.7528 99.6893 25.4568 99.6893 25.0917V11.5023C99.6893 11.1372 99.9851 10.8412 100.35 10.8412H102.533C102.855 10.8412 103.13 11.0737 103.184 11.3915L103.512 13.3264H103.587C104.63 11.4376 106.318 10.4435 108.353 10.4435ZM63.0372 11.2748L63.1502 11.2944L66.2234 12.1175C66.4666 12.1827 66.645 12.3838 66.6858 12.6259L66.6947 12.732V25.1167C66.6947 25.429 66.4698 25.6887 66.1733 25.7425L66.059 25.7528H62.9859C62.6738 25.7528 62.4143 25.5278 62.3605 25.2311L62.3502 25.1167V11.9089C62.3502 11.8534 62.3575 11.7981 62.3718 11.7444C62.4424 11.4805 62.6689 11.3 62.9257 11.2755L63.0372 11.2748ZM60.2107 5.54004C60.2797 5.54004 60.3482 5.55083 60.4137 5.57202C60.7224 5.67175 60.9073 5.97725 60.8658 6.28794L60.8395 6.4043L59.9447 9.17701C59.8692 9.411 59.6719 9.58034 59.4365 9.62394L59.316 9.63499H52.5426V13.4285H58.7858C59.1162 13.4319 59.3842 13.6685 59.437 13.9775L59.4465 14.0964L59.4206 16.5928C59.4172 16.915 59.184 17.1813 58.8778 17.2366L58.7599 17.2471H52.5426V25.0826C52.5426 25.4072 52.3089 25.6771 52.0007 25.7331L51.8819 25.7437H48.8956C48.5713 25.7437 48.3015 25.5099 48.2456 25.2014L48.2349 25.0826V7.30257C48.2349 6.38641 48.9335 5.63351 49.8267 5.54811L49.9963 5.54004H60.2107ZM43.8519 5.63127C44.292 5.63127 44.7472 5.66172 45.1858 5.71348C45.3961 5.73832 45.6529 5.77955 45.956 5.83718L46.0359 5.85782C46.3323 5.95534 46.5087 6.25021 46.4671 6.5489L46.4412 6.66071L45.9989 8.00681C45.9074 8.28546 45.6372 8.46529 45.345 8.44223L45.264 8.43647C45.079 8.42511 44.8923 8.41986 44.7055 8.41986C42.9644 8.41986 42.2883 8.98668 42.225 9.8834L42.22 10.0277V10.505H45.3755C45.6998 10.505 45.9696 10.7389 46.0255 11.0473L46.0362 11.1661V12.9088C46.0362 13.2334 45.8024 13.5033 45.4942 13.5593L45.3755 13.5699H42.22V25.0826C42.22 25.4072 41.9863 25.6771 41.6781 25.7331L41.5593 25.7437H38.5625C38.2381 25.7437 37.9684 25.5099 37.9124 25.2014L37.9018 25.0826V13.5699H36.3029C35.9786 13.5699 35.7088 13.3361 35.6529 13.0277L35.6422 12.9088V11.1661C35.6422 10.8416 35.8759 10.5716 36.1841 10.5157L36.3029 10.505H37.8767V10.0277C37.8767 7.69131 39.6341 5.63127 43.8519 5.63127ZM76.9484 7.61594C77.0064 7.61594 77.0641 7.62358 77.1202 7.63867L80.1184 8.4463C80.4069 8.524 80.6074 8.78575 80.6074 9.08469V25.0794C80.6074 25.4446 80.3116 25.7406 79.9467 25.7406H76.9484C76.5835 25.7406 76.2877 25.4446 76.2877 25.0794V8.27706C76.2877 7.91193 76.5835 7.61594 76.9484 7.61594ZM69.998 7.61594C70.056 7.61594 70.1137 7.62358 70.1697 7.63867L73.168 8.4463C73.4565 8.524 73.6569 8.78575 73.6569 9.08469V25.0794C73.6569 25.4446 73.3611 25.7406 72.9963 25.7406H69.998C69.6331 25.7406 69.3373 25.4446 69.3373 25.0794V8.27706C69.3373 7.91193 69.6331 7.61594 69.998 7.61594ZM26.423 13.8965C23.8873 13.8965 22.9332 15.1275 22.9332 18.2427C22.9332 21.4584 23.7115 22.7145 26.423 22.7145C28.0235 22.7145 28.9841 22.0962 29.4496 21.5015L29.5361 21.383V15.1527C28.9587 14.4241 27.854 13.8965 26.423 13.8965ZM9.45652 13.484C7.85601 13.484 6.8954 14.1022 6.4299 14.697L6.34336 14.8155V21.0458C6.9208 21.7744 8.02547 22.302 9.45652 22.302C11.9922 22.302 12.9463 21.071 12.9463 17.9558C12.9463 14.7401 12.168 13.484 9.45652 13.484ZM90.5173 13.771C88.3078 13.771 87.4141 14.6905 87.2155 16.6291H93.695C93.6453 14.6905 92.4537 13.771 90.5173 13.771ZM63.0343 6.07106L63.1473 6.09074L66.2177 6.9136C66.4609 6.97877 66.6393 7.17987 66.6801 7.42201L66.6889 7.52801V9.25967C66.6889 9.31523 66.6817 9.37056 66.6673 9.42423C66.5866 9.72585 66.3022 9.91851 66.0019 9.89377L65.8888 9.87409L62.8184 9.05123C62.5752 8.98606 62.3969 8.78496 62.3561 8.54282L62.3472 8.43682V6.70516C62.3472 6.6496 62.3545 6.59428 62.3689 6.54061C62.4395 6.27668 62.666 6.09619 62.9228 6.07176L63.0343 6.07106Z" fill="#E8501F"/>
</svg>
