<svg width="112" height="32" viewBox="0 0 112 32" fill="none" xmlns="http://www.w3.org/2000/svg">
<path d="M28.3623 10.5786C29.6724 10.5786 31.1226 10.7375 32.3174 11.27C32.4183 11.315 32.6255 11.4285 32.8213 11.6089C32.8602 11.6429 33.5403 11.4706 34.8613 11.0923C35.1647 11.0055 35.4803 11.1489 35.6191 11.4194L35.6631 11.5269L36.127 13.0532C36.2098 13.36 36.0567 13.6747 35.7783 13.8062L35.6689 13.8462L34.7109 14.103C34.7928 14.6047 34.834 14.9963 34.834 15.2769C34.8339 18.0808 33.1051 19.9008 28.3877 19.9009C27.6221 19.9009 26.8562 19.852 26.1152 19.729C25.7449 19.9011 25.547 20.1469 25.5469 20.4419C25.5469 20.7801 25.8167 20.9943 26.4512 21.0845L26.6338 21.106L30.8818 21.2788C34.9574 21.451 36.3652 22.8529 36.3652 25.0913C36.3652 28.1414 34.1177 30.0601 28.5107 30.0601C23.5956 30.06 21.6446 28.289 21.6445 26.0015C21.6445 25.0914 22.0642 24.2551 22.8545 23.6401C22.1877 23.1236 21.7189 22.3856 21.7188 21.4019C21.7188 20.3934 22.3109 19.4086 23.7188 18.769C22.5829 18.0803 21.8917 16.9738 21.8916 15.2769C21.8916 12.5957 23.6202 10.5787 28.3623 10.5786ZM25.8682 24.4517C25.4237 24.7713 25.2257 25.1894 25.2256 25.5337C25.2256 26.4983 26.0393 26.9907 28.1201 27.0317L28.4121 27.0347C31.8203 27.0593 32.6355 26.5181 32.6357 25.7065C32.6357 25.1251 32.2682 24.8079 30.6797 24.6812L30.166 24.6489L25.8682 24.4517ZM81.249 10.5132C86.4896 10.5133 88.7119 13.1375 88.7119 18.2866C88.7119 23.4357 86.4895 26.0102 81.249 26.0103C76.0317 26.0103 73.7617 23.4358 73.7617 18.2866C73.7617 13.1374 76.0317 10.5132 81.249 10.5132ZM7.44727 10.5522C8.79912 10.5523 10.1509 10.7483 11.3965 11.104L11.7871 11.2251C12.0969 11.3315 12.2743 11.6346 12.2275 11.938L12.1992 12.0513L11.5283 13.9858C11.4446 14.2274 11.2117 14.3791 10.9639 14.3667L10.8564 14.3511L10.5898 14.2876C9.42097 14.0276 8.18081 13.8979 7.27344 13.8979C5.8658 13.898 5.0752 14.3409 5.0752 15.0542C5.07588 17.1938 13.0537 15.6939 13.0537 20.9331C13.0536 23.8356 11.2009 26.0005 6.58203 26.0005C4.80009 26.0005 3.22212 25.746 1.87598 25.2104L1.61035 25.0972C1.33847 24.975 1.18954 24.6872 1.23633 24.4028L1.2627 24.2974L1.94336 22.3276C2.03129 22.0966 2.26911 21.9655 2.50488 22.0034L2.60547 22.0298L3.05273 22.186C4.26474 22.5751 5.60962 22.7534 6.65625 22.7534C8.36054 22.7534 9.07713 22.1382 9.07715 21.3511C9.07715 19.1126 1 20.6621 1 15.2505C1.00011 12.4464 3.07542 10.5522 7.44727 10.5522ZM18.6963 11.1763C19.0298 11.0874 19.3725 11.2847 19.4619 11.6167C19.476 11.6691 19.4834 11.7235 19.4834 11.7778V25.1372C19.4834 25.481 19.2036 25.7601 18.8584 25.7603H15.835C15.4896 25.7603 15.209 25.4811 15.209 25.1372V12.5845C15.209 12.3026 15.3994 12.0558 15.6729 11.9829L18.6963 11.1763ZM40.8799 10.0903C41.149 10.0173 41.425 10.1235 41.5791 10.3364L41.6377 10.4341L41.6787 10.5444L42.2236 12.5288C43.5326 11.4847 45.212 10.5133 46.9902 10.5132C50.5683 10.5132 52.8395 12.6287 52.9629 16.4702L52.9678 16.8032V25.1079C52.9678 25.4257 52.7378 25.6898 52.4346 25.7446L52.3184 25.7554H49.3701C49.051 25.7554 48.7855 25.5261 48.7305 25.2241L48.7197 25.1079V16.8032C48.7196 14.9637 47.7065 14.1685 45.8047 14.1685C44.7443 14.1686 43.5975 14.8963 42.9072 15.6401L42.7666 15.8003V25.1079C42.7666 25.4257 42.5366 25.6898 42.2334 25.7446L42.1172 25.7554H39.1689C38.8498 25.7554 38.5843 25.5261 38.5293 25.2241L38.5186 25.1079V11.2271C38.5186 10.9717 38.6686 10.7436 38.8955 10.6392L38.9971 10.6021L40.8799 10.0903ZM59.0869 6.10107C59.2811 6.08015 59.472 6.14709 59.6094 6.27979L59.6855 6.36768L67.4766 17.2065L67.4297 6.77979L67.4336 6.71143C67.4657 6.39526 67.7211 6.15546 68.0283 6.13135L68.1455 6.13232L71.0166 6.42236C71.3116 6.45211 71.5437 6.67503 71.5918 6.95752L71.6016 7.06592V25.104C71.6016 25.4217 71.3714 25.6858 71.0684 25.7407L70.9512 25.7515H68.7861C68.6129 25.7514 68.4486 25.6823 68.3281 25.563L68.2461 25.4644L59.7363 12.8179L59.7598 25.104C59.7596 25.422 59.5295 25.6858 59.2266 25.7407L59.1094 25.7515H56.2119C55.8928 25.7515 55.6273 25.5222 55.5723 25.2202L55.5615 25.104V7.06201C55.5615 6.76823 55.7595 6.5163 56.0352 6.43896L56.1416 6.41846L59.0869 6.10107ZM89.7451 10.5327C89.8494 10.5077 89.9587 10.5086 90.0625 10.5356L93.1895 11.354C93.4324 11.4176 93.6168 11.615 93.6631 11.8608L95.3818 20.9819L95.5615 22.2222L95.8027 20.9741L97.6123 12.6245C97.6777 12.323 97.9481 12.1091 98.2578 12.1138L102.324 12.1743C102.628 12.1789 102.887 12.3924 102.95 12.688L104.715 20.98L104.904 22.1938L105.112 20.9761L106.89 12.0347C106.943 11.7664 107.16 11.5603 107.432 11.52L110.255 11.103C110.61 11.0507 110.94 11.2944 110.993 11.6479C111.006 11.7308 111.001 11.8156 110.981 11.897L107.697 25.2573C107.626 25.547 107.366 25.7504 107.066 25.7505H102.891C102.587 25.7505 102.324 25.5415 102.257 25.2466L100.491 17.4712L100.303 16.1626L100.022 17.4839L98.0615 25.2612C97.989 25.5491 97.7287 25.7505 97.4307 25.7505H93.2705C92.9703 25.7504 92.709 25.546 92.6387 25.2554L89.2656 11.314C89.1816 10.9665 89.3963 10.6166 89.7451 10.5327ZM81.249 13.8726C78.8392 13.8726 77.9268 14.952 77.9268 18.2622C77.9268 21.5968 78.8393 22.6753 81.249 22.6753C83.6352 22.6752 84.5009 21.5722 84.501 18.2622C84.501 14.9521 83.6352 13.8727 81.249 13.8726ZM28.4121 13.6284C26.6833 13.6284 26.09 14.1695 26.0898 15.3745C26.0898 16.752 26.9797 17.0972 28.3135 17.0972C30.2153 17.0971 30.7344 16.6044 30.7344 15.3745C30.7342 14.1204 30.0915 13.6284 28.4121 13.6284ZM18.6992 6.08154C19.0328 5.99257 19.3755 6.18976 19.4648 6.52197C19.479 6.5745 19.4863 6.62873 19.4863 6.68311V8.37842C19.4863 8.66029 19.2959 8.90706 19.0225 8.97998L16.002 9.78564C15.6684 9.87462 15.3257 9.67743 15.2363 9.34521C15.2222 9.29272 15.2148 9.23843 15.2148 9.18408V7.48877C15.2148 7.2069 15.4053 6.96013 15.6787 6.88721L18.6992 6.08154Z" fill="#0777CF"/>
</svg>
